<svg width="80" height="80" viewBox="0 0 80 80" fill="none" xmlns="http://www.w3.org/2000/svg">
<rect width="80" height="80" fill="#FFAE00"/>
<g clip-path="url(#clip0_521_13072)">
<path d="M67.6208 19.8482L41.5102 66.3857C40.9711 67.3466 39.5861 67.3522 39.0389 66.3961L12.4106 19.8527C11.8144 18.8107 12.7084 17.5486 13.893 17.7597L40.0315 22.4165C40.1982 22.4462 40.369 22.4459 40.5357 22.4156L66.1276 17.7663C67.3083 17.5519 68.2064 18.8042 67.6208 19.8482Z" fill="url(#paint0_linear_521_13072)"/>
<path d="M52.4828 11.6514L33.1602 15.4252C32.8426 15.4872 32.6075 15.7554 32.5883 16.0774L31.3997 36.0864C31.3718 36.5577 31.806 36.9234 32.2675 36.8173L37.6472 35.5799C38.1505 35.4642 38.6053 35.906 38.5019 36.4106L36.9036 44.2115C36.796 44.7366 37.2906 45.1855 37.805 45.0298L41.1277 44.0236C41.6428 43.8677 42.1378 44.3179 42.0288 44.8434L39.4888 57.097C39.3299 57.8635 40.3528 58.2814 40.7793 57.6243L41.0643 57.1854L56.8094 25.866C57.0731 25.3416 56.6184 24.7437 56.0406 24.8548L50.5031 25.92C49.9827 26.02 49.54 25.537 49.6868 25.0296L53.3011 12.5414C53.4481 12.0331 53.0038 11.5496 52.4828 11.6514Z" fill="url(#paint1_linear_521_13072)"/>
</g>
<defs>
<linearGradient id="paint0_linear_521_13072" x1="11.7604" y1="16.0965" x2="44.1191" y2="60.1864" gradientUnits="userSpaceOnUse">
<stop stop-color="#41D1FF"/>
<stop offset="1" stop-color="#BD34FE"/>
</linearGradient>
<linearGradient id="paint1_linear_521_13072" x1="38.5314" y1="12.6759" x2="44.3723" y2="52.8753" gradientUnits="userSpaceOnUse">
<stop stop-color="#FFEA83"/>
<stop offset="0.0833333" stop-color="#FFDD35"/>
<stop offset="1" stop-color="#FFA800"/>
</linearGradient>
<clipPath id="clip0_521_13072">
<rect width="58.1818" height="57.1429" fill="white" transform="translate(10.9092 11.4287)"/>
</clipPath>
</defs>
</svg>
