<svg width="80" height="80" viewBox="0 0 80 80" fill="none" xmlns="http://www.w3.org/2000/svg">
<rect width="80" height="80" fill="black"/>
<path fill-rule="evenodd" clip-rule="evenodd" d="M31.6332 65.1102C36.2511 65.1102 40.0009 61.3616 40.0009 56.7426V48.375H31.6332C27.0154 48.375 23.2656 52.1237 23.2656 56.7426C23.2656 61.3616 27.0143 65.1102 31.6332 65.1102Z" fill="#0ACF83"/>
<path fill-rule="evenodd" clip-rule="evenodd" d="M23.2568 40.0009C23.2568 35.383 27.0055 31.6333 31.6244 31.6333H39.9921V48.377H31.6244C27.0051 48.3723 23.2615 44.6287 23.2568 40.0093V40.0009Z" fill="#A259FF"/>
<path fill-rule="evenodd" clip-rule="evenodd" d="M23.2568 23.2573C23.2568 18.6383 27.0055 14.8896 31.6244 14.8896H39.9921V31.6333H31.6244C27.0051 31.6287 23.2615 27.8851 23.2568 23.2657V23.2573Z" fill="#F24E1E"/>
<path fill-rule="evenodd" clip-rule="evenodd" d="M39.921 14.8896H48.2886C52.9065 14.8896 56.6551 18.6383 56.6551 23.2573C56.6551 27.8762 52.9065 31.6249 48.2875 31.6249H39.9199L39.921 14.8896Z" fill="#FF7262"/>
<path fill-rule="evenodd" clip-rule="evenodd" d="M56.7446 40.0009C56.7399 44.6203 52.9963 48.3639 48.3769 48.3685C43.7591 48.3685 39.9219 44.6199 39.9219 40.0009C39.9265 35.3815 43.6701 31.6379 48.2895 31.6333C52.9074 31.6333 56.6571 35.382 56.6571 40.0009H56.7446Z" fill="#1ABCFE"/>
</svg>
