<svg width="160" height="160" viewBox="0 0 160 160" fill="none" xmlns="http://www.w3.org/2000/svg">
<rect width="160" height="160" fill="#FFBFAB"/>
<path d="M120.771 39.1254C110.523 24.351 90.2828 19.9719 75.6483 29.3637L49.9465 45.8638C42.9259 50.3126 38.0903 57.5342 36.6253 65.7574C35.3993 72.6079 36.4769 79.6746 39.6875 85.8387C37.4875 89.2003 35.987 92.9762 35.2767 96.9384C33.7975 105.32 35.7324 113.948 40.6444 120.875C50.8947 135.65 71.1349 140.028 85.7672 130.636L111.469 114.136C118.49 109.688 123.326 102.466 124.79 94.2426C126.016 87.3922 124.939 80.3256 121.73 74.1608C123.93 70.7994 125.43 67.0236 126.139 63.0616C127.619 54.6804 125.684 46.052 120.771 39.1254" fill="#FF3E00"/>
<path d="M73.2242 122.837C65.0346 125.006 56.3862 121.742 51.5632 114.662C48.6425 110.5 47.492 105.315 48.3715 100.278C48.5189 99.4597 48.7217 98.6525 48.9786 97.8625L49.4571 96.3769L50.7588 97.3504C53.7649 99.5994 57.1261 101.309 60.6974 102.407L61.6417 102.698L61.5547 103.658C61.4393 105.023 61.8024 106.386 62.5795 107.504C64.0309 109.637 66.6348 110.621 69.1012 109.969C69.6534 109.819 70.1797 109.583 70.6618 109.271L96.0694 92.7846C97.3265 91.9787 98.1928 90.6718 98.4566 89.1833C98.7199 87.6653 98.3733 86.1032 97.4946 84.8479C96.0423 82.715 93.4378 81.7305 90.9704 82.3818C90.4189 82.5321 89.8933 82.7674 89.4118 83.0796L79.7165 89.3727C78.1222 90.4048 76.3824 91.1827 74.5572 91.6795C66.3677 93.8476 57.7195 90.5835 52.8965 83.5042C49.9757 79.3419 48.8252 74.157 49.7048 69.1204C50.5755 64.1791 53.4504 59.84 57.6242 57.1676L83.0296 40.6803C84.6245 39.6465 86.3656 38.8676 88.1923 38.3707C96.3817 36.2027 105.03 39.4667 109.853 46.5459C112.773 50.7083 113.924 55.8932 113.045 60.9298C112.897 61.7482 112.694 62.5554 112.437 63.3456L111.959 64.8312L110.658 63.8592C107.652 61.6089 104.291 59.8981 100.719 58.8009L99.7743 58.5091L99.8613 57.5495C99.9757 56.1845 99.6127 54.8222 98.8365 53.7032C97.3851 51.5707 94.7812 50.5867 92.3148 51.2385C91.7626 51.3888 91.2363 51.6243 90.7542 51.9368L65.3466 68.4234C64.0897 69.2287 63.2239 70.5356 62.9613 72.0238C62.6963 73.5417 63.0423 75.1044 63.9214 76.3597C65.3737 78.4926 67.9782 79.4771 70.4457 78.8258C70.9977 78.6752 71.5239 78.4397 72.0062 78.1275L81.7002 71.8368C83.2938 70.8033 85.0336 70.0247 86.8589 69.528C95.0484 67.36 103.697 70.624 108.52 77.7033C111.44 81.8657 112.591 87.0506 111.711 92.0872C110.84 97.0287 107.965 101.368 103.792 104.042L78.3865 120.528C76.7915 121.562 75.0504 122.34 73.2238 122.837" fill="white"/>
</svg>
