<svg width="80" height="80" viewBox="0 0 80 80" fill="none" xmlns="http://www.w3.org/2000/svg">
<rect width="80" height="80" fill="#3178C6"/>
<path fill-rule="evenodd" clip-rule="evenodd" d="M49.5217 63.66V71.482C50.7933 72.1339 52.2972 72.6227 54.0334 72.9486C55.7697 73.2745 57.5995 73.4375 59.5233 73.4375C61.3981 73.4375 63.1791 73.2583 64.8664 72.8997C66.5537 72.5413 68.0333 71.9505 69.3048 71.1275C70.5764 70.3047 71.5831 69.2291 72.3248 67.9009C73.0666 66.5728 73.4375 64.9311 73.4375 62.9756C73.4375 61.5578 73.2256 60.3153 72.8017 59.248C72.3778 58.1806 71.7666 57.2314 70.9677 56.4003C70.1689 55.5692 69.2111 54.8236 68.0944 54.1636C66.9777 53.5036 65.7183 52.8803 64.3162 52.2937C63.2892 51.87 62.3681 51.4586 61.553 51.0594C60.7378 50.66 60.045 50.2527 59.4744 49.8372C58.9037 49.4216 58.4636 48.9816 58.1539 48.5172C57.8442 48.0527 57.6892 47.5272 57.6892 46.9405C57.6892 46.4028 57.8278 45.918 58.105 45.4861C58.3822 45.0542 58.7734 44.6836 59.2788 44.3739C59.7842 44.0644 60.4036 43.8239 61.1372 43.6528C61.8709 43.4817 62.6859 43.3962 63.5827 43.3962C64.2347 43.3962 64.9234 43.4452 65.6489 43.5428C66.3744 43.6406 67.1039 43.7914 67.8377 43.995C68.5713 44.1987 69.2844 44.4555 69.9773 44.765C70.6702 45.0747 71.31 45.4331 71.8969 45.8406V38.5319C70.7069 38.0756 69.4067 37.7375 67.9966 37.5175C66.5864 37.2975 64.9683 37.1875 63.1425 37.1875C61.2839 37.1875 59.5233 37.3872 57.8605 37.7864C56.1977 38.1856 54.7345 38.8089 53.4709 39.6563C52.2075 40.5038 51.2091 41.5833 50.4755 42.8952C49.7419 44.2069 49.375 45.7753 49.375 47.6005C49.375 49.9308 50.0475 51.9189 51.3925 53.5648C52.7373 55.2106 54.7792 56.6039 57.5181 57.7447C58.5941 58.1847 59.5967 58.6164 60.5259 59.0402C61.4552 59.4639 62.2581 59.9039 62.9345 60.3602C63.6111 60.8164 64.145 61.3134 64.5364 61.8512C64.9277 62.3889 65.1233 63 65.1233 63.6845C65.1233 64.1897 65.0009 64.6581 64.7564 65.09C64.5119 65.5219 64.1409 65.8966 63.6438 66.2144C63.1466 66.5322 62.527 66.7806 61.7853 66.9598C61.0434 67.1392 60.1755 67.2288 59.1809 67.2288C57.4855 67.2288 55.8064 66.9314 54.1434 66.3366C52.4806 65.7419 50.94 64.8497 49.5217 63.66V63.66ZM36.3719 44.3878H46.4062V37.9688H18.4375V44.3878H28.4228V72.9688H36.3719V44.3878Z" fill="white"/>
</svg>
