<svg width="520" height="520" viewBox="0 0 520 520" fill="none" xmlns="http://www.w3.org/2000/svg">
<rect width="520" height="520" fill="#E3F3FF"/>
<g filter="url(#filter0_d_446_13718)">
<rect x="133" y="110" width="253.636" height="300" rx="9.09091" fill="#1EA7FD"/>
</g>
<path fill-rule="evenodd" clip-rule="evenodd" d="M214.901 156.243C217.764 154.974 221.047 154.326 224.771 154.326C228.568 154.326 231.827 154.975 234.576 156.237L234.578 156.238C237.357 157.505 239.476 159.247 240.982 161.45C242.281 163.352 243.045 165.522 243.256 167.988H234.707C234.304 166.08 233.321 164.513 231.746 163.354C229.922 162.011 227.532 161.402 224.694 161.402C222.771 161.402 221.076 161.673 219.645 162.26C218.237 162.82 217.089 163.631 216.269 164.724L216.261 164.735C215.464 165.825 215.064 167.069 215.06 168.432C215.023 169.561 215.261 170.607 215.82 171.524L215.831 171.541C216.373 172.395 217.102 173.117 217.994 173.712L218.009 173.721C218.863 174.272 219.834 174.745 220.913 175.148L220.929 175.154C221.99 175.531 223.117 175.853 224.308 176.12L229.052 177.255L229.068 177.258C231.31 177.76 233.355 178.426 235.207 179.253C237.041 180.072 238.609 181.07 239.924 182.241C241.219 183.393 242.217 184.746 242.926 186.304L242.93 186.313C243.641 187.845 244.02 189.632 244.038 191.698C244.02 194.733 243.248 197.308 241.759 199.472L241.758 199.473C240.281 201.626 238.124 203.333 235.225 204.571C232.354 205.788 228.837 206.418 224.642 206.418C220.486 206.418 216.921 205.781 213.92 204.542C210.953 203.309 208.673 201.505 207.036 199.138C205.604 197.03 204.752 194.444 204.526 191.335H213.141C213.382 192.847 213.916 194.188 214.773 195.325L214.784 195.34C215.833 196.685 217.218 197.687 218.902 198.357L218.916 198.363C220.599 199.005 222.47 199.316 224.513 199.316C226.512 199.316 228.304 199.025 229.86 198.411C231.42 197.802 232.694 196.929 233.617 195.758C234.554 194.572 235.024 193.195 235.024 191.671C235.024 190.242 234.593 188.971 233.69 187.933C232.853 186.952 231.672 186.175 230.227 185.564C228.827 184.964 227.138 184.43 225.172 183.956L225.166 183.955L219.418 182.511L219.409 182.509C215.075 181.455 211.74 179.827 209.335 177.678C207.028 175.617 205.85 172.837 205.866 169.207L205.866 169.196C205.85 166.213 206.639 163.655 208.207 161.474C209.815 159.263 212.032 157.514 214.901 156.243ZM229.86 198.411L229.863 198.41L229.446 197.353L229.859 198.411L229.86 198.411ZM224.771 152.053C220.781 152.053 217.177 152.748 213.98 154.165C210.789 155.579 208.237 157.566 206.367 160.14L206.364 160.145C204.491 162.749 203.576 165.784 203.593 169.203C203.576 173.387 204.964 176.821 207.821 179.373C210.58 181.837 214.286 183.601 218.868 184.716L218.864 184.715L219.141 183.613L218.872 184.717L224.623 186.162L224.634 186.164C226.521 186.619 228.084 187.118 229.334 187.653L229.339 187.656C230.576 188.179 231.424 188.778 231.963 189.412L231.973 189.422C232.478 190.002 232.751 190.726 232.751 191.671C232.751 192.695 232.447 193.573 231.834 194.35C231.208 195.142 230.296 195.801 229.032 196.294L229.028 196.296C227.796 196.783 226.3 197.043 224.513 197.043C222.702 197.043 221.115 196.769 219.734 196.242C218.395 195.708 217.357 194.941 216.582 193.95C215.847 192.971 215.398 191.715 215.29 190.122C215.25 189.526 214.754 189.063 214.156 189.063H203.335C203.029 189.063 202.736 189.186 202.522 189.404C202.309 189.623 202.192 189.919 202.199 190.225C202.289 194.201 203.255 197.619 205.159 200.419L205.164 200.427C207.073 203.188 209.716 205.257 213.049 206.641L213.051 206.642C216.386 208.019 220.258 208.691 224.642 208.691C229.055 208.691 232.89 208.029 236.113 206.664L236.116 206.662C239.345 205.284 241.871 203.324 243.631 200.761C245.411 198.174 246.292 195.139 246.31 191.703L246.31 191.688C246.292 189.351 245.863 187.234 244.993 185.36C244.152 183.512 242.964 181.904 241.436 180.543C239.927 179.2 238.156 178.081 236.133 177.178C234.13 176.284 231.942 175.573 229.573 175.042L229.581 175.044L229.316 176.149L229.565 175.04L224.829 173.908L224.813 173.904C223.703 173.656 222.665 173.359 221.699 173.015C220.754 172.662 219.939 172.261 219.247 171.816C218.597 171.381 218.108 170.884 217.756 170.333C217.461 169.845 217.305 169.248 217.332 168.494C217.333 168.481 217.333 168.467 217.333 168.453C217.333 167.554 217.586 166.776 218.091 166.082C218.613 165.388 219.39 164.807 220.49 164.37L220.503 164.365C221.584 163.92 222.969 163.675 224.694 163.675C227.227 163.675 229.089 164.22 230.399 165.184C231.685 166.131 232.424 167.446 232.602 169.237C232.66 169.818 233.149 170.261 233.733 170.261H244.451C244.755 170.261 245.047 170.139 245.261 169.921C245.474 169.704 245.592 169.41 245.587 169.106C245.532 165.753 244.63 162.76 242.858 160.167C241.092 157.584 238.632 155.589 235.522 154.17C232.418 152.747 228.824 152.053 224.771 152.053ZM235.522 154.17L235.051 155.203L235.524 154.171L235.522 154.17ZM218.091 166.082L218.087 166.087L217.178 165.405L218.096 166.076L218.091 166.082ZM217.756 170.333L217.761 170.341L216.791 170.932L217.75 170.324L217.756 170.333ZM219.247 171.816L219.255 171.821L218.624 172.766L219.24 171.811L219.247 171.816ZM221.699 173.015L221.707 173.018L221.31 174.083L221.691 173.013L221.699 173.015ZM244.993 185.36L244.995 185.364L243.96 185.834L244.991 185.355L244.993 185.36ZM243.631 200.761L242.695 200.116L243.632 200.759L243.631 200.761ZM216.582 193.95L216.588 193.957L215.68 194.641L216.576 193.942L216.582 193.95ZM219.734 196.242L219.742 196.245L219.322 197.301L219.727 196.24L219.734 196.242ZM203.593 169.203L203.593 169.197L204.729 169.202L203.593 169.208L203.593 169.203ZM154.446 152.776C153.818 152.776 153.309 153.285 153.309 153.913V163.133C153.309 163.76 153.818 164.269 154.446 164.269H169.502V206.805C169.502 207.433 170.011 207.942 170.639 207.942H181.692C182.32 207.942 182.829 207.433 182.829 206.805V164.269H197.886C198.513 164.269 199.022 163.76 199.022 163.133V153.913C199.022 153.285 198.513 152.776 197.886 152.776H154.446ZM155.582 161.996V155.049H196.749V161.996H181.692C181.065 161.996 180.556 162.505 180.556 163.133V205.669H171.775V163.133C171.775 162.505 171.266 161.996 170.639 161.996H155.582ZM155.775 225.751H360.153C363.109 225.751 365.506 228.139 365.506 231.085V238.697C365.506 241.643 363.109 244.031 360.153 244.031H155.775C152.818 244.031 150.422 241.643 150.422 238.697V231.085C150.422 228.139 152.818 225.751 155.775 225.751ZM155.773 228.66C154.43 228.66 153.34 229.746 153.34 231.085V238.697C153.34 240.036 154.43 241.122 155.773 241.122H360.152C361.496 241.122 362.585 240.036 362.585 238.697V231.085C362.585 229.746 361.496 228.66 360.152 228.66H155.773ZM316.736 174.312C310.968 174.312 306.292 169.653 306.292 163.905C306.292 158.156 310.968 153.497 316.736 153.497C322.505 153.497 327.181 158.156 327.181 163.905C327.181 169.653 322.505 174.312 316.736 174.312ZM316.736 168.067C319.043 168.067 320.913 166.203 320.913 163.904C320.913 161.605 319.043 159.741 316.736 159.741C314.428 159.741 312.558 161.605 312.558 163.904C312.558 166.203 314.428 168.067 316.736 168.067ZM362.441 208.778C362.441 209.314 362.006 209.748 361.468 209.748H356.268C355.731 209.748 355.295 209.314 355.295 208.778V203.779C355.295 203.244 354.859 202.81 354.322 202.81H349.122C348.585 202.81 348.149 202.375 348.149 201.84V189.902C348.149 189.366 348.585 188.932 349.122 188.932H354.322C354.859 188.932 355.295 189.366 355.295 189.902V194.901C355.295 195.437 355.731 195.871 356.268 195.871H361.468C362.006 195.871 362.441 196.305 362.441 196.841V208.778ZM287.52 190.028V208.653H268.83C268.83 198.366 277.198 190.028 287.52 190.028ZM318.673 191.448L327.965 207.19C328.238 207.652 328.083 208.246 327.62 208.518C327.47 208.606 327.3 208.652 327.127 208.652H308.542C308.004 208.652 307.569 208.218 307.569 207.682C307.569 207.509 307.615 207.339 307.703 207.19L316.995 191.448C317.268 190.987 317.864 190.833 318.328 191.104C318.47 191.188 318.589 191.306 318.673 191.448ZM271.074 153.497H284.177C286.327 153.497 288.07 155.234 288.07 157.376V170.433C288.07 172.576 286.327 174.313 284.177 174.313H271.074C268.924 174.313 267.181 172.576 267.181 170.433V157.376C267.181 155.234 268.924 153.497 271.074 153.497ZM345.274 153.497H364.216C364.753 153.497 365.189 153.931 365.189 154.466V173.343C365.189 173.878 364.753 174.312 364.216 174.312H345.274C344.736 174.312 344.3 173.878 344.3 173.343V154.466C344.3 153.931 344.736 153.497 345.274 153.497ZM155.775 253.852H249.205C252.161 253.852 254.558 256.24 254.558 259.186V266.798C254.558 269.744 252.161 272.133 249.205 272.133H155.775C152.818 272.133 150.422 269.744 150.422 266.798V259.186C150.422 256.24 152.818 253.852 155.775 253.852ZM155.773 256.762C154.43 256.762 153.34 257.847 153.34 259.186V266.799C153.34 268.138 154.43 269.223 155.773 269.223H249.204C250.547 269.223 251.637 268.138 251.637 266.799V259.186C251.637 257.847 250.547 256.762 249.204 256.762H155.773ZM297.696 253.852H333.219C336.175 253.852 338.571 256.24 338.571 259.186V266.798C338.571 269.744 336.175 272.133 333.219 272.133H297.696C294.739 272.133 292.343 269.744 292.343 266.798V259.186C292.343 256.24 294.739 253.852 297.696 253.852ZM297.695 256.762C296.352 256.762 295.262 257.847 295.262 259.186V266.799C295.262 268.138 296.352 269.223 297.695 269.223H333.218C334.562 269.223 335.651 268.138 335.651 266.799V259.186C335.651 257.847 334.562 256.762 333.218 256.762H297.695ZM272.563 272.304C267.456 272.304 263.317 268.178 263.317 263.09C263.317 258.001 267.456 253.876 272.563 253.876C277.669 253.876 281.808 258.001 281.808 263.09C281.808 268.178 277.669 272.304 272.563 272.304ZM272.562 269.394C276.056 269.394 278.888 266.572 278.888 263.09C278.888 259.608 276.056 256.786 272.562 256.786C269.069 256.786 266.236 259.608 266.236 263.09C266.236 266.572 269.069 269.394 272.562 269.394ZM357.692 272.303C352.586 272.303 348.447 268.178 348.447 263.09C348.447 258.001 352.586 253.876 357.692 253.876C362.799 253.876 366.938 258.001 366.938 263.09C366.938 268.178 362.799 272.303 357.692 272.303ZM357.693 269.394C361.187 269.394 364.019 266.572 364.019 263.09C364.019 259.608 361.187 256.786 357.693 256.786C354.2 256.786 351.367 259.608 351.367 263.09C351.367 266.572 354.2 269.394 357.693 269.394ZM156.129 287.446H249.168C251.662 287.446 253.683 289.46 253.683 291.945V364.277C253.683 366.762 251.662 368.776 249.168 368.776H156.129C153.636 368.776 151.615 366.762 151.615 364.277V291.945C151.615 289.46 153.636 287.446 156.129 287.446ZM156.129 290.446C155.298 290.446 154.624 291.117 154.624 291.946V364.278C154.624 365.106 155.298 365.778 156.129 365.778H249.168C249.999 365.778 250.673 365.106 250.673 364.278V291.946C250.673 291.117 249.999 290.446 249.168 290.446H156.129ZM225.271 304.81C224.685 304.226 223.737 304.226 223.15 304.81L202.651 325.239L182.151 304.81C181.565 304.226 180.617 304.226 180.03 304.81C179.441 305.397 179.441 306.351 180.03 306.938L200.523 327.36L180.028 347.783C179.439 348.37 179.439 349.324 180.028 349.911C180.615 350.495 181.563 350.495 182.149 349.911L202.651 329.48L223.152 349.911C223.739 350.495 224.687 350.495 225.273 349.911C225.862 349.324 225.862 348.37 225.273 347.783L204.779 327.36L225.271 306.938C225.86 306.351 225.86 305.397 225.271 304.81ZM264.378 293.672C264.381 290.233 267.18 287.446 270.632 287.446C273.566 287.446 276.029 289.46 276.703 292.177H361.932C362.763 292.177 363.437 292.849 363.437 293.677C363.437 294.505 362.763 295.177 361.932 295.177H276.703C276.029 297.894 273.567 299.909 270.632 299.909C267.178 299.909 264.378 297.119 264.378 293.677V293.677L264.378 293.672ZM265.883 315.289H307.837C308.511 312.571 310.974 310.557 313.908 310.557C316.843 310.557 319.306 312.571 319.979 315.289H361.932C362.763 315.289 363.437 315.96 363.437 316.788C363.437 317.616 362.763 318.288 361.932 318.288H319.979C319.306 321.005 316.843 323.02 313.908 323.02C310.974 323.02 308.511 321.005 307.837 318.288H265.883C265.052 318.288 264.378 317.616 264.378 316.788C264.378 315.96 265.052 315.289 265.883 315.289ZM361.932 361.51H293.893C293.398 358.561 290.825 356.314 287.725 356.314C284.626 356.314 282.053 358.561 281.558 361.51H265.883C265.052 361.51 264.378 362.181 264.378 363.009C264.378 363.838 265.052 364.509 265.883 364.509H281.789C282.615 366.988 284.96 368.777 287.725 368.777C290.49 368.777 292.836 366.988 293.662 364.509H361.932C362.763 364.509 363.437 363.838 363.437 363.009C363.437 362.181 362.763 361.51 361.932 361.51ZM348.441 338.4H361.932C362.763 338.4 363.437 339.071 363.437 339.899C363.437 340.728 362.763 341.399 361.932 341.399H348.441C347.767 344.116 345.304 346.131 342.37 346.131C339.435 346.131 336.972 344.116 336.299 341.399H265.883C265.052 341.399 264.378 340.728 264.378 339.899C264.378 339.071 265.052 338.4 265.883 338.4H336.299C336.972 335.683 339.435 333.668 342.37 333.668C345.304 333.668 347.767 335.683 348.441 338.4Z" fill="url(#paint0_linear_446_13718)"/>
<defs>
<filter id="filter0_d_446_13718" x="98.9091" y="87.2727" width="321.819" height="368.182" filterUnits="userSpaceOnUse" color-interpolation-filters="sRGB">
<feFlood flood-opacity="0" result="BackgroundImageFix"/>
<feColorMatrix in="SourceAlpha" type="matrix" values="0 0 0 0 0 0 0 0 0 0 0 0 0 0 0 0 0 0 127 0" result="hardAlpha"/>
<feOffset dy="11.3636"/>
<feGaussianBlur stdDeviation="17.0455"/>
<feColorMatrix type="matrix" values="0 0 0 0 0 0 0 0 0 0 0 0 0 0 0 0 0 0 0.15 0"/>
<feBlend mode="normal" in2="BackgroundImageFix" result="effect1_dropShadow_446_13718"/>
<feBlend mode="normal" in="SourceGraphic" in2="effect1_dropShadow_446_13718" result="shape"/>
</filter>
<linearGradient id="paint0_linear_446_13718" x1="19.893" y1="250.424" x2="257.399" y2="494.234" gradientUnits="userSpaceOnUse">
<stop stop-color="white"/>
<stop offset="1" stop-color="white" stop-opacity="0.3"/>
</linearGradient>
</defs>
</svg>
